<?xml version="1.0" encoding="utf-8"?>
<!-- Generator: Adobe Illustrator 27.3.1, SVG Export Plug-In . SVG Version: 6.00 Build 0)  -->
<svg version="1.1" id="Laag_1" xmlns="http://www.w3.org/2000/svg" xmlns:xlink="http://www.w3.org/1999/xlink" x="0px" y="0px"
	 viewBox="0 150 841.89 150" style="enable-background:new 0 0 841.89 500;" xml:space="preserve">
<style type="text/css">
	.st0{fill:#A7A91A;}
	.st1{fill:#0085A2;}
	.st2{fill:#9FA91E;}
	.st3{fill:#66605D;}
</style>
<g>
	<g>
		<path class="st0" d="M67.99,190.02c0,0,9.49-23.65,31.47-19.63c21.98,4.02,32.44-2.13,36.8-5.18h-15.32l-15.69-1.47l-12.05-2.21
			l-12.93,1.58l-7.53,2.39l-5.77,5.52l-2.39,8.2v9.63L67.99,190.02z"/>
		<path class="st1" d="M146.88,296.48l-3.2,13.63c-0.15,0.65-0.73,1.12-1.4,1.13l-8.11,0.13c-1.05,0.02-1.77-1.04-1.38-2.01
			l6.27-15.51c0.29-0.72,1.1-1.09,1.84-0.84l5.05,1.75C146.64,295.01,147.05,295.75,146.88,296.48z"/>
		<path class="st1" d="M109.71,251.72c0,0,22.97,7.93,28.62,14.33c5.65,6.4,10.15,15.82,10.15,15.82l-7.67-1.78l-19.8-14.41
			l-13.93-7.16l-1.51-3.77L109.71,251.72z"/>
		<path class="st2" d="M102.6,246.28c0,0-5.58,24.86-1.87,34.46c3.7,9.6,3.38,27.69-0.92,29.59c-3.88,1.71-22.73,0.78-22.73,0.56
			c0.05-5.95,11.91-48.41,11.91-48.41l3.2-17.15L102.6,246.28z"/>
		<path class="st0" d="M111.4,182.59c0,0-13.58,46.84-8.8,51.22l-12.55-1.73l3.01-23.65l9.53-25.84H111.4z"/>
		<path class="st0" d="M178.44,156.33c0,0,16.07,29.38,2.76,54.23c0,0,23.1-5.77,16.82-33.64l-6.9-23.85L178.44,156.33z"/>
		<g>
			<g>
				<path class="st3" d="M137.01,166.83c-1.42,0-2.59-0.11-3.44-0.36c-1.61-0.46-4.07-1.53-7.19-2.87
					c-10.4-4.49-29.75-12.85-40.65-7.83c-3.59,1.65-6,4.61-7.37,9.05c-0.37,1.19-1.63,1.86-2.83,1.49
					c-1.19-0.37-1.86-1.63-1.49-2.83c1.74-5.65,5.04-9.63,9.79-11.82c12.75-5.87,32.52,2.67,44.34,7.78
					c2.85,1.23,5.31,2.3,6.64,2.68c5.84,1.68,37.29-5.96,55.73-11.16c1.21-0.34,2.45,0.36,2.79,1.56c0.34,1.2-0.36,2.45-1.56,2.79
					C187.25,156.59,150.58,166.83,137.01,166.83z"/>
			</g>
			<g>
				<path class="st3" d="M78.14,206.27c-2.42,0-4.83-0.91-7.1-2.74c-7.45-6.01-11.69-21.42-5.78-31.53
					c9.37-16.04,26.83-14.33,42.67-10.54c16.54,3.96,25.37,0.76,25.46,0.73c1.16-0.44,2.47,0.15,2.91,1.31
					c0.44,1.16-0.13,2.46-1.29,2.91c-0.4,0.15-10.07,3.76-28.13-0.55c-20.44-4.89-31.37-2.44-37.72,8.43
					c-4.61,7.89-1.2,20.96,4.72,25.74c3.03,2.45,6.12,2.26,9.19-0.54c3.83-3.52,3.51-6.89,3.2-10.15c-0.24-2.5-0.51-5.34,1.63-7.46
					c2.48-2.46,7.39-3.63,24.15-1.9c1.24,0.13,2.14,1.24,2.02,2.48c-0.13,1.24-1.24,2.15-2.48,2.02
					c-11.96-1.24-18.85-1.03-20.51,0.61c-0.59,0.58-0.5,1.83-0.31,3.82c0.34,3.53,0.84,8.87-4.65,13.91
					C83.6,205.11,80.87,206.27,78.14,206.27z"/>
			</g>
			<g>
				<path class="st3" d="M90.15,234.61c-1.18,0-2.17-0.91-2.25-2.1c-1.31-18.71,11.81-50.55,12.37-51.9
					c0.48-1.15,1.79-1.7,2.95-1.22c1.15,0.48,1.7,1.8,1.22,2.95c-0.13,0.32-13.27,32.21-12.04,49.85c0.09,1.25-0.85,2.33-2.1,2.41
					C90.25,234.61,90.2,234.61,90.15,234.61z"/>
			</g>
			<g>
				<path class="st3" d="M76.6,311.34c-0.2,0-0.45,0.06-0.65,0c-1.2-0.33-1.49-1.28-1.16-2.49c5.99-21.83,15.49-57.62,14.5-63.06
					c-0.23-1.23,0.59-2.41,1.82-2.63c1.23-0.22,2.41,0.59,2.63,1.82c1.51,8.24-12.89,58.89-14.51,64.77
					C78.95,310.75,78.49,311.14,76.6,311.34z"/>
			</g>
			<g>
				<path class="st3" d="M105.68,248.83c-0.06,0-0.13,0-0.19-0.01l-17.57-1.47c-3.34-0.28-5.83-3.22-5.56-6.56l0.42-5.09
					c0.27-3.29,3.23-5.84,6.57-5.55l25.93,2.16c0.48,0.04,0.95,0.14,1.4,0.28c1.11,0.37,1.76,1.53,1.49,2.67
					c-1.4,5.9-5.51,10.64-11.56,13.37C106.32,248.76,106,248.83,105.68,248.83z M88.97,234.64c-0.93,0-1.61,0.63-1.67,1.43
					l-0.43,5.09c-0.07,0.86,0.57,1.61,1.43,1.69l16.98,1.42c4.38-2.12,6.58-5.15,7.68-7.62l-23.97-2
					C88.97,234.64,88.97,234.64,88.97,234.64z"/>
			</g>
			<g>
				<path class="st3" d="M149.98,285.45c-5,0-9.84-2.62-12.52-4.8c-0.34-0.28-0.6-0.65-0.73-1.07c-1.19-3.78-10.84-9.91-28.69-18.2
					c-1.19-0.55-2.13-0.99-2.75-1.3c-1.65-0.81-2.55-1.91-2.67-3.28c-0.19-2.22,1.75-3.64,3.31-4.78c0.04-0.03,0.09-0.07,0.14-0.1
					c-1.51-1.89-2.39-4.26-2.51-4.59c-0.42-1.17,0.19-2.47,1.37-2.89c1.17-0.42,2.47,0.19,2.89,1.36l0,0
					c0.4,1.11,1.41,3.15,2.4,3.93c0.73,0.57,1.14,1.4,1.13,2.28c-0.02,1.66-1.41,2.67-2.75,3.65c-0.23,0.17-0.53,0.39-0.81,0.61
					c0.56,0.27,1.29,0.61,2.16,1.01c13.68,6.36,27.92,13.69,30.82,20.21c1.91,1.39,9.3,6.18,14.71,1.34
					c0.04-0.19,0.1-0.37,0.17-0.55c0.63-1.56,2.52-3.6,11.59-5.66c3.67-0.83,7.29-2.31,10.78-3.74c6.22-2.54,12.15-4.95,16.94-2.88
					c-1.3-2.62-3.19-5.52-4.29-6.05c-0.94-0.45-1.46-1.48-1.25-2.5c0.21-1.02,1.1-1.76,2.14-1.8c0.13-0.01,1.94-0.05,4.17,0.34
					c-1.15-1.92-2.43-4.23-3.47-6.76c-1.15-2.78-2.01-5.08-2.7-6.93c-1.12-3-1.86-4.98-2.68-5.96c-1.25-1.5-0.51-3.34,0.7-6.4
					c1.03-2.58,2.94-7.39,1.6-8.78c-0.54-0.56-3.18-2.06-14.63,2.01c-0.54,0.19-1.14,0.17-1.66-0.06
					c-0.18-0.08-17.94-7.71-32.92-3.68c-0.63,0.17-1.31,0.06-1.85-0.31c-5.67-3.84-13.15-7.15-15.26-5.97
					c-0.55,0.31-0.59,1.46-0.56,2.11c0.48,10.84,0.65,12.35,0.66,12.41c0.09,0.77-0.22,1.56-0.83,2.05
					c-1.51,1.22-3.73,3.66-3.91,5.28c-0.14,1.24-1.27,2.13-2.5,1.99c-1.24-0.14-2.13-1.26-1.99-2.5c0.36-3.13,3.13-6.08,4.65-7.48
					c-0.12-1.78-0.32-5.41-0.59-11.54c-0.17-3.75,1.47-5.48,2.86-6.26c5.12-2.87,15.09,2.96,19.14,5.61
					c14.5-3.45,30.25,2.28,34.06,3.81c9.8-3.39,15.71-3.57,18.57-0.6c3.36,3.49,1.04,9.33-0.65,13.59c-0.32,0.82-0.75,1.88-0.93,2.5
					c1.03,1.5,1.79,3.52,2.94,6.6c0.68,1.82,1.53,4.08,2.65,6.79c1.43,3.48,3.42,6.62,4.74,8.69c1.6,2.52,2.56,4.05,1.12,5.51
					c-1.4,1.42-3.17,0.32-3.75-0.04c-0.34-0.21-0.71-0.39-1.11-0.55c2.01,3.26,3.52,7.1,3.48,8.99c-0.04,1.87-1.3,2.54-1.69,2.71
					c-1.93,0.81-3.74-0.88-4.61-1.7c-2.91-2.74-7.55-1.04-14.89,1.95c-3.67,1.5-7.46,3.04-11.49,3.96c-5.75,1.3-7.67,2.43-8.25,2.88
					c-0.03,0.52-0.23,1.03-0.61,1.42C156.54,284.35,153.22,285.45,149.98,285.45z"/>
			</g>
			<g>
				<path class="st3" d="M174.31,212.96c-9.36,0-21.09-2.67-35.15-8.01c-1.17-0.44-1.75-1.75-1.31-2.91
					c0.44-1.17,1.75-1.75,2.91-1.31c25.45,9.67,42.38,10.34,50.33,1.98c13.1-13.78-1.84-48.32-2-48.66
					c-0.5-1.14,0.02-2.47,1.16-2.98c1.15-0.5,2.48,0.02,2.98,1.16c0.67,1.53,16.3,37.63,1.14,53.59
					C189.85,210.58,183.14,212.96,174.31,212.96z"/>
			</g>
			<g>
				<path class="st3" d="M159.77,219.22c-0.19,0-0.39-0.02-0.58-0.08c-1.21-0.32-1.92-1.56-1.6-2.77l2.03-7.59
					c0.32-1.2,1.57-1.92,2.76-1.6c1.21,0.32,1.92,1.56,1.6,2.77l-2.03,7.59C161.69,218.56,160.77,219.22,159.77,219.22z"/>
			</g>
			<g>
				<path class="st3" d="M132.03,186.81c-0.09,0-0.19-0.01-0.28-0.02c-1.24-0.16-2.12-1.29-1.96-2.52c0.03-0.27,0.89-6.62,5.78-9.42
					c3.09-1.77,6.91-1.69,11.37,0.23c1.15,0.49,1.67,1.82,1.18,2.97c-0.5,1.15-1.83,1.68-2.97,1.18c-3.08-1.33-5.55-1.48-7.34-0.45
					c-2.91,1.66-3.53,6.02-3.54,6.06C134.13,185.97,133.16,186.81,132.03,186.81z"/>
			</g>
			<g>
				<path class="st3" d="M170.19,241.64c-0.92,0-1.79-0.57-2.12-1.49c-0.74-2.02-1.68-3.27-2.66-3.5c-1.24-0.3-2.83,0.86-3.29,1.29
					c-0.91,0.85-2.34,0.81-3.19-0.1c-0.85-0.9-0.82-2.32,0.08-3.18c0.35-0.34,3.59-3.31,7.42-2.42c2.59,0.6,4.57,2.74,5.89,6.36
					c0.43,1.17-0.18,2.47-1.35,2.9C170.71,241.59,170.45,241.64,170.19,241.64z"/>
			</g>
			<g>
				<path class="st3" d="M136.28,237.64c-0.34,0-0.68-0.08-1-0.23c-1.11-0.55-1.57-1.88-1.03-3c0.18-0.37,1.85-3.61,5.41-4.31
					c2.6-0.51,5.31,0.5,8.06,2.98c0.93,0.84,1,2.26,0.17,3.19c-0.84,0.93-2.27,1-3.19,0.17c-1.13-1.01-2.78-2.17-4.15-1.91
					c-1.38,0.25-2.23,1.85-2.24,1.87C137.91,237.19,137.11,237.64,136.28,237.64z"/>
			</g>
			<g>
				<path class="st3" d="M161.43,260.49c-1.2,0-2.37-0.21-3.48-0.63c-3.91-1.47-6.23-5.23-7.51-8.21c-2.65,3.81-5.67,5.9-9.02,6.2
					c-6.35,0.58-11.16-5.62-11.36-5.88c-0.62-0.82-0.46-1.99,0.36-2.61c0.82-0.62,1.98-0.46,2.61,0.35l0,0
					c0.04,0.05,3.76,4.84,8.07,4.43c2.93-0.27,5.68-2.9,8.16-7.8c0.36-0.71,1.13-1.1,1.9-1c0.79,0.1,1.42,0.69,1.58,1.47
					c0.01,0.07,1.68,7.76,6.53,9.58c2.71,1.02,6.1,0,10.08-3.01c0.82-0.62,1.99-0.46,2.61,0.36c0.62,0.82,0.46,1.99-0.36,2.61
					C167.95,259.1,164.54,260.49,161.43,260.49z"/>
			</g>
			<g>
				<path class="st3" d="M152.46,295.98c-9.42,0-16.64-4.03-17.06-4.27c-0.62-0.35-1.04-0.98-1.13-1.69
					c-1.33-10.89,2.99-12.96,3.87-13.26c1.18-0.4,2.47,0.22,2.87,1.4c0.38,1.11-0.15,2.32-1.21,2.8c-0.52,0.38-1.6,2.36-1.17,7.32
					c3.04,1.42,12.55,5.17,22.42,1.76c0.35-1.89,0.67-4.41,0.57-6.26c-4.3-0.95-6.52-2.04-6.13-4.38c0.2-1.23,1.38-2.06,2.6-1.86
					c0.62,0.1,1.13,0.45,1.47,0.92c0.79,0.34,2.72,0.85,4.51,1.2c0.86,0.17,1.55,0.82,1.76,1.67c0.95,3.79-0.45,10.17-0.61,10.88
					c-0.16,0.72-0.68,1.32-1.36,1.6C159.91,295.4,156.03,295.98,152.46,295.98z"/>
			</g>
			<g>
				<path class="st3" d="M133.71,311.37c-0.26,0-0.51-0.04-0.77-0.14c-1.17-0.42-1.78-1.72-1.36-2.89l6.42-17.75
					c0.42-1.17,1.73-1.78,2.89-1.36c1.18,0.42,1.78,1.72,1.36,2.89l-6.42,17.75C135.51,310.8,134.64,311.37,133.71,311.37z"/>
			</g>
			<g>
				<path class="st3" d="M167.24,311.37c-0.58,0-1.17-0.22-1.61-0.67c-3.29-3.34-7.06-14.99-7.79-17.29
					c-0.38-1.19,0.29-2.46,1.48-2.83c1.2-0.37,2.46,0.29,2.83,1.48c1.55,4.93,4.74,13.49,6.7,15.48c0.88,0.89,0.87,2.32-0.02,3.19
					C168.38,311.16,167.81,311.37,167.24,311.37z"/>
			</g>
			<path class="st3" d="M147.83,249.86c0,0-6.31-7.26-0.83-6.99c5.48,0.27,13.69-1.07,10.02,3.94c-3.67,5.01-3.98,5.48-4.81,4.5
				C151.39,250.32,147.83,249.86,147.83,249.86z"/>
		</g>
		<path class="st3" d="M173.54,158.26c0,0,7.21,17.81,21.56,8.57l-3.48-13.26L173.54,158.26z"/>
		<path class="st2" d="M122.7,318.97"/>
	</g>
</g>
<g>
	<path class="st1" d="M235.16,182.7h17.27c16.84,0,32.43,10.43,32.43,31.29c0,21.11-15.41,31.46-32.34,31.46h-17.35V182.7z
		 M246.62,235.19h6.15c10.86,0,20.63-7.23,20.63-21.2c0-13.8-9.77-20.95-20.63-21.03h-6.15V235.19z"/>
	<path class="st1" d="M304.65,196.92h-10.78v-9.84h10.78V196.92z M304.48,245.46h-10.44V203.4h10.44V245.46z"/>
	<path class="st1" d="M338,247.48c-15.41,0-25.1-9.93-25.1-23.05c0-13.12,9.6-23.05,23.33-23.05c12.72,0,22.66,9.76,22.66,22.8v2.69
		h-34.87c0.93,7.74,6.23,12.2,14.15,12.2c6.15,0,10.78-2.27,14.4-5.55l5.73,6.48C353.83,244.2,347.01,247.48,338,247.48z
		 M324.44,219.8h23.25c-1.43-5.97-5.64-9.84-11.54-9.84C330.17,209.96,325.87,213.74,324.44,219.8z"/>
	<path class="st1" d="M377.58,245.46h-10.53V203.4h10.02v8.92c1.52-3.28,5.9-9.08,12.04-9.08h1.43v11.69
		c-0.51-0.25-1.43-0.34-2.02-0.34c-6.74,0-10.95,5.22-10.95,8.83V245.46z"/>
	<path class="st1" d="M421.47,247.48c-15.41,0-25.1-9.93-25.1-23.05c0-13.12,9.6-23.05,23.33-23.05c12.72,0,22.66,9.76,22.66,22.8
		v2.69h-34.87c0.93,7.74,6.23,12.2,14.15,12.2c6.15,0,10.78-2.27,14.4-5.55l5.73,6.48C437.3,244.2,430.48,247.48,421.47,247.48z
		 M407.91,219.8h23.25c-1.43-5.97-5.64-9.84-11.54-9.84C413.63,209.96,409.34,213.74,407.91,219.8z"/>
	<path class="st1" d="M461.05,245.46h-10.53V203.4h10.02v5.22c2.61-3.11,7.41-6.31,13.81-6.31c8.84,0,15.08,5.97,15.08,15.73v27.42
		h-10.44v-24.31c0-7.07-4.13-9.51-8.84-9.51c-4.13,0-9.1,3.11-9.1,8.75V245.46z"/>
	<path class="st0" d="M512.76,212.15v33.31h-10.44v-33.31h-5.22v-8.75h5.22v-13.37l10.44-3.11v16.49h5.22v8.75H512.76z"/>
	<path class="st0" d="M548.48,247.48c-15.41,0-25.1-9.93-25.1-23.05c0-13.12,9.6-23.05,23.33-23.05c12.72,0,22.66,9.76,22.66,22.8
		v2.69h-34.87c0.93,7.74,6.23,12.2,14.15,12.2c6.15,0,10.78-2.27,14.4-5.55l5.73,6.48C564.31,244.2,557.49,247.48,548.48,247.48z
		 M534.91,219.8h23.25c-1.43-5.97-5.64-9.84-11.54-9.84C540.64,209.96,536.35,213.74,534.91,219.8z"/>
	<path class="st0" d="M588.06,245.46h-10.53v-65.61h10.19v28.85c2.61-3.11,7.41-6.31,13.64-6.31c8.84,0,15.08,5.89,15.08,15.65
		v27.42H606v-24.31c0-6.98-4.04-9.51-8.84-9.51c-4.13,0-9.1,3.11-9.1,8.83V245.46z"/>
	<path class="st0" d="M655.1,240.16c-2.61,3.2-7.5,6.39-13.81,6.39c-8.84,0-15.16-5.97-15.16-15.73V203.4h10.53v24.31
		c0,7.07,4.04,9.51,8.84,9.51c4.13,0,9.18-3.11,9.18-8.75V203.4h10.36v42.06h-9.94V240.16z"/>
	<path class="st0" d="M685.93,196.92h-10.78v-9.84h10.78V196.92z M685.76,245.46h-10.44V203.4h10.44V245.46z"/>
	<path class="st0" d="M719.45,203.73v9c-3.2-1.51-6.32-2.27-8.51-2.27c-3.2,0-5.22,1.26-5.22,3.36c0,1.6,1.85,3.11,6.23,5.89
		c9.52,6.23,12.04,9.93,12.04,14.89c0,7.07-5.81,12.11-15.75,12.2c-4.13,0-9.1-1.26-12.47-2.78v-9c4.21,2.1,8.42,3.2,11.03,3.2
		c4.13,0,5.98-1.77,5.98-3.95c0-1.43-0.93-3.2-7.58-7.4c-8.51-5.47-10.53-8.58-10.53-13.54c0-5.55,4.38-11.27,15.24-11.27
		C713.64,202.05,716.92,202.72,719.45,203.73z"/>
</g>
<g>
	<path class="st3" d="M264.62,270.65h-4.8l4.15-11.98h2.98L264.62,270.65z"/>
	<path class="st3" d="M282.91,269.61v3.72c-1.51-0.82-3.03-1.3-4.37-1.3c-1.95,0-3.24,0.91-3.24,2.29c0,0.99,1.04,1.86,3.68,3.55
		c5.06,3.2,6.4,5.15,6.4,7.65c0,3.63-2.98,6.01-7.65,6.05c-2.03,0-4.58-0.69-6.31-1.56v-3.72c2.16,1.17,4.41,1.82,5.84,1.82
		c2.59-0.04,3.81-1.21,3.81-2.64c0-0.86-0.48-1.99-4.45-4.45c-4.37-2.81-5.58-4.24-5.58-6.92c0-2.55,2.12-5.45,7.22-5.45
		C280.05,268.66,281.65,269.05,282.91,269.61z"/>
	<path class="st3" d="M302.5,280.99h-12.58v-4.02h12.58V280.99z"/>
	<path class="st3" d="M308.16,258.67h4.41v13.1h15.48v-13.1h4.41v32.26h-4.41v-15.22h-15.48v15.22h-4.41V258.67z"/>
	<path class="st3" d="M349.93,292.01c-7.48,0-12.45-5.23-12.45-11.89c0-6.57,4.84-11.89,11.72-11.89c6.44,0,11.59,5.06,11.59,11.63
		v0.99H341.8c0.3,4.63,3.46,7.74,8.13,7.74c3.42,0,6.05-1.38,8.09-3.29l2.33,2.64C358.06,290.2,354.51,292.01,349.93,292.01z
		 M342.02,277.7h14.31c-0.82-3.55-3.55-6.01-7.13-6.01C345.56,271.69,342.84,274.07,342.02,277.7z"/>
	<path class="st3" d="M369.48,290.93h-4.06v-21.62h3.89v4.45c0.86-1.69,3.07-4.45,6.14-4.45h0.69v4.58
		c-0.17-0.13-0.65-0.17-0.86-0.17c-3.55,0-5.79,3.2-5.79,5.36V290.93z"/>
	<path class="st3" d="M386.56,272.73v18.2h-4.02v-18.2h-2.9v-3.42h2.9v-6.88l4.02-1.6v8.47h2.85v3.42H386.56z"/>
	<path class="st3" d="M417.04,280.12c0,6.49-5.23,11.89-12.32,11.89c-7.05,0-12.28-5.4-12.28-11.89c0-6.49,5.23-11.89,12.28-11.89
		C411.81,268.23,417.04,273.63,417.04,280.12z M396.72,280.12c0,4.54,3.37,8.39,8,8.39c4.67,0,8.04-3.89,8.04-8.39
		c0-4.54-3.37-8.39-8.04-8.39C400.09,271.73,396.72,275.58,396.72,280.12z"/>
	<path class="st3" d="M432.39,300.14c-2.03,0-4.41-0.17-7.26-0.78v-3.55c3.29,0.69,5.36,0.86,7.22,0.86c4.11,0,7.61-1.73,7.61-8
		v-2.08c-2.12,2.38-5.19,3.72-7.96,3.72c-5.84,0.04-11.03-4.32-11.03-10.94c0-6.66,5.15-10.98,11.03-11.03
		c2.81,0,5.92,1.38,8.04,3.85v-2.9h3.98v19.29C444.02,297.33,439.31,300.14,432.39,300.14z M440.05,279.39
		c0-4.06-3.24-7.44-7.26-7.44c-4.15,0-7.57,3.37-7.57,7.44c0,4.11,3.42,7.44,7.57,7.44C436.8,286.82,440.05,283.49,440.05,279.39z"
		/>
	<path class="st3" d="M461.23,292.01c-7.48,0-12.45-5.23-12.45-11.89c0-6.57,4.84-11.89,11.72-11.89c6.44,0,11.59,5.06,11.59,11.63
		v0.99H453.1c0.3,4.63,3.46,7.74,8.13,7.74c3.42,0,6.05-1.38,8.09-3.29l2.33,2.64C469.36,290.2,465.82,292.01,461.23,292.01z
		 M453.32,277.7h14.31c-0.82-3.55-3.55-6.01-7.13-6.01C456.87,271.69,454.14,274.07,453.32,277.7z"/>
	<path class="st3" d="M480.78,290.93h-4.06v-21.62h3.89v2.68c1.38-1.69,3.89-3.24,7.09-3.24c4.71,0,7.78,3.07,7.78,8.09v14.1h-4.06
		v-12.89c0-4.28-2.51-5.71-5.23-5.71c-2.33,0-5.4,1.82-5.4,5.32V290.93z"/>
	<path class="st3" d="M513.99,291.84c-3.8,0-7.01-1.77-9.04-4.45v3.55h-3.89V257.2h4.06v15.52c2.03-2.59,5.23-4.32,8.86-4.32
		c6.44,0,11.2,5.45,11.2,11.72C525.19,286.52,520.43,291.84,513.99,291.84z M512.99,288.21c4.58,0,7.91-3.81,7.91-8.09
		c0-4.32-3.33-8.09-7.91-8.09c-4.54,0-7.96,3.81-7.96,8.13C505.04,284.4,508.45,288.21,512.99,288.21z"/>
	<path class="st3" d="M553.68,280.12c0,6.49-5.23,11.89-12.32,11.89c-7.05,0-12.28-5.4-12.28-11.89c0-6.49,5.23-11.89,12.28-11.89
		C548.45,268.23,553.68,273.63,553.68,280.12z M533.36,280.12c0,4.54,3.37,8.39,8,8.39c4.67,0,8.04-3.89,8.04-8.39
		c0-4.54-3.37-8.39-8.04-8.39C536.73,271.73,533.36,275.58,533.36,280.12z"/>
	<path class="st3" d="M569.72,269.61v3.72c-1.51-0.82-3.03-1.3-4.37-1.3c-1.95,0-3.24,0.91-3.24,2.29c0,0.99,1.04,1.86,3.67,3.55
		c5.06,3.2,6.4,5.15,6.4,7.65c0,3.63-2.98,6.01-7.65,6.05c-2.03,0-4.58-0.69-6.31-1.56v-3.72c2.16,1.17,4.41,1.82,5.84,1.82
		c2.59-0.04,3.8-1.21,3.8-2.64c0-0.86-0.48-1.99-4.45-4.45c-4.37-2.81-5.58-4.24-5.58-6.92c0-2.55,2.12-5.45,7.22-5.45
		C566.87,268.66,568.47,269.05,569.72,269.61z"/>
	<path class="st3" d="M593.77,290.54c-1.38,0.78-3.76,1.08-5.28,1.08c-7.05,0-12.41-5.15-12.41-11.5c0-6.36,5.36-11.5,12.41-11.5
		c1.47,0,3.76,0.35,5.28,1.17v3.76h-0.13c-1.82-1.17-3.72-1.43-5.1-1.43c-4.67,0-8.17,3.59-8.17,8c0,4.41,3.5,8,8.17,8
		c1.43,0,3.11-0.22,5.1-1.3h0.13V290.54z"/>
	<path class="st3" d="M603.15,290.93h-4.06V257.2h3.98v14.7c1.38-1.64,3.89-3.16,7.01-3.16c4.71,0,7.78,3.07,7.78,8.09v14.1h-4.02
		v-12.89c0-4.28-2.51-5.71-5.28-5.71c-2.33,0-5.4,1.82-5.4,5.32V290.93z"/>
	<path class="st3" d="M642.91,292.01c-7.48,0-12.45-5.23-12.45-11.89c0-6.57,4.84-11.89,11.72-11.89c6.44,0,11.59,5.06,11.59,11.63
		v0.99h-18.98c0.3,4.63,3.46,7.74,8.13,7.74c3.42,0,6.05-1.38,8.09-3.29l2.33,2.64C651.04,290.2,647.5,292.01,642.91,292.01z
		 M635,277.7h14.31c-0.82-3.55-3.55-6.01-7.13-6.01C638.55,271.69,635.82,274.07,635,277.7z"/>
	<path class="st3" d="M661.85,285.57v5.36h-5.1v-5.36H661.85z"/>
	<path class="st3" d="M688.78,280.12c0,6.49-5.23,11.89-12.32,11.89c-7.05,0-12.28-5.4-12.28-11.89c0-6.49,5.23-11.89,12.28-11.89
		C683.55,268.23,688.78,273.63,688.78,280.12z M668.46,280.12c0,4.54,3.37,8.39,8,8.39c4.67,0,8.04-3.89,8.04-8.39
		c0-4.54-3.37-8.39-8.04-8.39C671.83,271.73,668.46,275.58,668.46,280.12z"/>
	<path class="st3" d="M696.96,285.57v5.36h-5.1v-5.36H696.96z"/>
</g>
</svg>
